<svg width="151" height="43" viewBox="0 0 151 43" fill="none" xmlns="http://www.w3.org/2000/svg">
<g opacity="0.6">
<rect x="0.675537" y="17.0085" width="8.50427" height="8.50427" fill="#667085"/>
<rect x="26.1884" y="25.5129" width="8.50428" height="8.50427" transform="rotate(180 26.1884 25.5129)" fill="#667085"/>
<path d="M9.17981 17.0087L17.6841 8.50439V17.0087L9.17981 25.5129V17.0087Z" fill="#D0D5DD"/>
<path d="M17.6841 25.5128L9.17982 34.0171L9.17982 25.5128L17.6841 17.0085L17.6841 25.5128Z" fill="#98A2B3"/>
<path d="M0.675537 17.0085L17.6841 0V8.50427L9.17981 17.0085H0.675537Z" fill="#667085"/>
<path d="M26.1884 25.5129L9.17981 42.5215L9.17981 34.0172L17.6841 25.5129L26.1884 25.5129Z" fill="#667085"/>
<path d="M44.71 30.3673C43.3706 30.3673 42.0725 30.1772 40.8157 29.7968C39.5755 29.4165 38.5916 28.9121 37.864 28.2838L38.9802 25.7785C39.6913 26.3408 40.5594 26.8038 41.5847 27.1676C42.6264 27.5148 43.6682 27.6885 44.71 27.6885C45.9998 27.6885 46.9589 27.4818 47.5873 27.0684C48.2322 26.655 48.5546 26.1093 48.5546 25.4313C48.5546 24.9352 48.3727 24.5301 48.0089 24.2159C47.6617 23.8852 47.2152 23.6288 46.6695 23.447C46.1238 23.2651 45.3797 23.0584 44.4371 22.8268C43.1143 22.5127 42.0394 22.1985 41.2126 21.8843C40.4023 21.5701 39.6996 21.0823 39.1043 20.4208C38.5255 19.7429 38.2361 18.8334 38.2361 17.6924C38.2361 16.7333 38.4924 15.8651 39.005 15.088C39.5342 14.2942 40.3197 13.6658 41.3614 13.2028C42.4197 12.7398 43.7096 12.5083 45.2309 12.5083C46.2892 12.5083 47.331 12.6406 48.3562 12.9052C49.3814 13.1698 50.2661 13.5501 51.0102 14.0462L49.9933 16.5514C49.2326 16.1049 48.4389 15.7659 47.6121 15.5344C46.7853 15.3029 45.9833 15.1872 45.2061 15.1872C43.9328 15.1872 42.982 15.4021 42.3536 15.8321C41.7418 16.262 41.4358 16.8325 41.4358 17.5436C41.4358 18.0396 41.6095 18.4448 41.9567 18.759C42.3205 19.0732 42.7753 19.3212 43.321 19.5031C43.8666 19.685 44.6108 19.8917 45.5533 20.1232C46.8431 20.4208 47.9015 20.735 48.7283 21.0658C49.5551 21.3799 50.2579 21.8678 50.8366 22.5292C51.4319 23.1906 51.7296 24.0836 51.7296 25.208C51.7296 26.1671 51.465 27.0353 50.9358 27.8125C50.4232 28.5897 49.6377 29.2098 48.5794 29.6728C47.5211 30.1358 46.2313 30.3673 44.71 30.3673Z" fill="#475467"/>
<path d="M54.6293 16.8738H57.7298V30.1193H54.6293V16.8738ZM56.192 14.6911C55.6298 14.6911 55.1585 14.5175 54.7782 14.1702C54.3978 13.8064 54.2077 13.3599 54.2077 12.8308C54.2077 12.3016 54.3978 11.8634 54.7782 11.5161C55.1585 11.1524 55.6298 10.9705 56.192 10.9705C56.7542 10.9705 57.2255 11.1441 57.6058 11.4913C57.9862 11.8221 58.1763 12.2437 58.1763 12.7564C58.1763 13.302 57.9862 13.7651 57.6058 14.1454C57.242 14.5092 56.7708 14.6911 56.192 14.6911Z" fill="#475467"/>
<path d="M65.892 30.2929C64.8171 30.2929 63.7671 30.1523 62.7418 29.8712C61.7166 29.5901 60.8981 29.2346 60.2862 28.8047L61.4768 26.4483C62.0721 26.8451 62.7832 27.1676 63.61 27.4156C64.4533 27.6471 65.2801 27.7629 66.0904 27.7629C67.9424 27.7629 68.8685 27.2751 68.8685 26.2994C68.8685 25.8364 68.6287 25.514 68.1491 25.3321C67.6861 25.1502 66.9337 24.9765 65.892 24.8112C64.8006 24.6458 63.9076 24.4557 63.2131 24.2407C62.5351 24.0257 61.9398 23.6537 61.4272 23.1245C60.9311 22.5788 60.6831 21.8264 60.6831 20.8673C60.6831 19.6106 61.204 18.6101 62.2457 17.866C63.3041 17.1054 64.7262 16.725 66.5121 16.725C67.4216 16.725 68.331 16.8325 69.2405 17.0475C70.15 17.2459 70.8941 17.5188 71.4729 17.866L70.2823 20.2224C69.1578 19.561 67.8928 19.2302 66.4873 19.2302C65.5778 19.2302 64.8833 19.3708 64.4037 19.6519C63.9407 19.9165 63.7092 20.272 63.7092 20.7185C63.7092 21.2146 63.9572 21.5701 64.4533 21.7851C64.9659 21.9835 65.7514 22.1737 66.8097 22.3556C67.868 22.5209 68.7362 22.7111 69.4142 22.9261C70.0921 23.141 70.6709 23.5048 71.1504 24.0174C71.6465 24.5301 71.8946 25.2577 71.8946 26.2002C71.8946 27.4404 71.3571 28.4326 70.2823 29.1767C69.2074 29.9208 67.744 30.2929 65.892 30.2929Z" fill="#475467"/>
<path d="M86.7245 16.8738L80.5235 31.1859C79.9447 32.6245 79.242 33.6332 78.4151 34.212C77.5883 34.8073 76.5879 35.1049 75.4138 35.1049C74.7524 35.1049 74.0992 34.9974 73.4543 34.7825C72.8094 34.5675 72.2803 34.2698 71.8669 33.8895L73.1071 31.6075C73.4047 31.8886 73.752 32.1119 74.1488 32.2772C74.5622 32.4426 74.9756 32.5253 75.389 32.5253C75.9347 32.5253 76.3812 32.3847 76.7285 32.1036C77.0923 31.8225 77.423 31.3512 77.7206 30.6898L77.9439 30.1689L72.1645 16.8738H75.389L79.5561 26.6715L83.748 16.8738H86.7245Z" fill="#475467"/>
<path d="M96.0044 16.725C97.2942 16.725 98.4435 17.0061 99.4522 17.5684C100.477 18.1306 101.279 18.9243 101.858 19.9496C102.437 20.9748 102.726 22.1571 102.726 23.4966C102.726 24.836 102.437 26.0266 101.858 27.0684C101.279 28.0936 100.477 28.8873 99.4522 29.4496C98.4435 30.0118 97.2942 30.2929 96.0044 30.2929C94.2185 30.2929 92.8047 29.6976 91.7629 28.507V34.9313H88.6624V16.8738H91.6141V18.6101C92.1267 17.9818 92.7551 17.5105 93.4992 17.1963C94.2598 16.8821 95.0949 16.725 96.0044 16.725ZM95.6571 27.6389C96.7981 27.6389 97.7324 27.2585 98.46 26.4979C99.2041 25.7372 99.5762 24.7368 99.5762 23.4966C99.5762 22.2564 99.2041 21.2559 98.46 20.4953C97.7324 19.7346 96.7981 19.3543 95.6571 19.3543C94.913 19.3543 94.2433 19.5279 93.648 19.8752C93.0527 20.2059 92.5814 20.6854 92.2342 21.3138C91.8869 21.9422 91.7133 22.6698 91.7133 23.4966C91.7133 24.3234 91.8869 25.051 92.2342 25.6793C92.5814 26.3077 93.0527 26.7955 93.648 27.1428C94.2433 27.4735 94.913 27.6389 95.6571 27.6389Z" fill="#475467"/>
<path d="M113.182 16.725C114.853 16.725 116.192 17.2128 117.201 18.1885C118.209 19.1641 118.714 20.611 118.714 22.5292V30.1193H115.613V22.9261C115.613 21.7685 115.34 20.9004 114.795 20.3216C114.249 19.7263 113.472 19.4287 112.463 19.4287C111.322 19.4287 110.421 19.7759 109.759 20.4705C109.098 21.1484 108.767 22.1323 108.767 23.4221V30.1193H105.667V11.7146H108.767V18.4117C109.28 17.866 109.908 17.4526 110.652 17.1715C111.413 16.8738 112.256 16.725 113.182 16.725Z" fill="#475467"/>
<path d="M135.471 16.8738V30.1193H132.519V28.4326C132.023 29.0279 131.403 29.4909 130.659 29.8216C129.915 30.1358 129.113 30.2929 128.253 30.2929C126.483 30.2929 125.086 29.8051 124.061 28.8295C123.052 27.8373 122.548 26.3738 122.548 24.4391V16.8738H125.648V24.0174C125.648 25.208 125.913 26.101 126.442 26.6963C126.988 27.2751 127.757 27.5644 128.749 27.5644C129.857 27.5644 130.733 27.2255 131.378 26.5475C132.039 25.853 132.37 24.8608 132.37 23.571V16.8738H135.471Z" fill="#475467"/>
<path d="M143.623 30.2929C142.548 30.2929 141.498 30.1523 140.473 29.8712C139.448 29.5901 138.629 29.2346 138.017 28.8047L139.208 26.4483C139.803 26.8451 140.514 27.1676 141.341 27.4156C142.184 27.6471 143.011 27.7629 143.821 27.7629C145.673 27.7629 146.599 27.2751 146.599 26.2994C146.599 25.8364 146.36 25.514 145.88 25.3321C145.417 25.1502 144.665 24.9765 143.623 24.8112C142.532 24.6458 141.639 24.4557 140.944 24.2407C140.266 24.0257 139.671 23.6537 139.158 23.1245C138.662 22.5788 138.414 21.8264 138.414 20.8673C138.414 19.6106 138.935 18.6101 139.977 17.866C141.035 17.1054 142.457 16.725 144.243 16.725C145.153 16.725 146.062 16.8325 146.971 17.0475C147.881 17.2459 148.625 17.5188 149.204 17.866L148.013 20.2224C146.889 19.561 145.624 19.2302 144.218 19.2302C143.309 19.2302 142.614 19.3708 142.135 19.6519C141.672 19.9165 141.44 20.272 141.44 20.7185C141.44 21.2146 141.688 21.5701 142.184 21.7851C142.697 21.9835 143.482 22.1737 144.541 22.3556C145.599 22.5209 146.467 22.7111 147.145 22.9261C147.823 23.141 148.402 23.5048 148.881 24.0174C149.377 24.5301 149.626 25.2577 149.626 26.2002C149.626 27.4404 149.088 28.4326 148.013 29.1767C146.938 29.9208 145.475 30.2929 143.623 30.2929Z" fill="#475467"/>
</g>
</svg>
