<svg width="151" height="43" viewBox="0 0 151 43" fill="none" xmlns="http://www.w3.org/2000/svg">
<g opacity="0.3">
<rect x="0.780396" y="17.0085" width="8.50427" height="8.50427" fill="#667085"/>
<rect x="26.2932" y="25.5129" width="8.50428" height="8.50427" transform="rotate(180 26.2932 25.5129)" fill="#667085"/>
<path d="M9.28467 17.0087L17.7889 8.50439V17.0087L9.28467 25.5129V17.0087Z" fill="#D0D5DD"/>
<path d="M17.7889 25.5128L9.28467 34.0171L9.28467 25.5128L17.7889 17.0085L17.7889 25.5128Z" fill="#98A2B3"/>
<path d="M0.780396 17.0085L17.7889 0V8.50427L9.28467 17.0085H0.780396Z" fill="#667085"/>
<path d="M26.2932 25.5129L9.28466 42.5215L9.28466 34.0172L17.7889 25.5129L26.2932 25.5129Z" fill="#667085"/>
<path d="M44.8149 30.3673C43.4755 30.3673 42.1774 30.1772 40.9206 29.7968C39.6804 29.4165 38.6965 28.9121 37.9689 28.2838L39.0851 25.7785C39.7962 26.3408 40.6643 26.8038 41.6896 27.1676C42.7313 27.5148 43.7731 27.6885 44.8149 27.6885C46.1047 27.6885 47.0638 27.4818 47.6922 27.0684C48.3371 26.655 48.6595 26.1093 48.6595 25.4313C48.6595 24.9352 48.4776 24.5301 48.1138 24.2159C47.7666 23.8852 47.3201 23.6288 46.7744 23.447C46.2287 23.2651 45.4846 23.0584 44.542 22.8268C43.2191 22.5127 42.1443 22.1985 41.3175 21.8843C40.5072 21.5701 39.8044 21.0823 39.2091 20.4208C38.6304 19.7429 38.341 18.8334 38.341 17.6924C38.341 16.7333 38.5973 15.8651 39.1099 15.088C39.6391 14.2942 40.4245 13.6658 41.4663 13.2028C42.5246 12.7398 43.8144 12.5083 45.3358 12.5083C46.3941 12.5083 47.4359 12.6406 48.4611 12.9052C49.4863 13.1698 50.371 13.5501 51.1151 14.0462L50.0982 16.5514C49.3375 16.1049 48.5438 15.7659 47.717 15.5344C46.8902 15.3029 46.0882 15.1872 45.311 15.1872C44.0377 15.1872 43.0869 15.4021 42.4585 15.8321C41.8466 16.262 41.5407 16.8325 41.5407 17.5436C41.5407 18.0396 41.7144 18.4448 42.0616 18.759C42.4254 19.0732 42.8802 19.3212 43.4258 19.5031C43.9715 19.685 44.7157 19.8917 45.6582 20.1232C46.948 20.4208 48.0063 20.735 48.8332 21.0658C49.66 21.3799 50.3627 21.8678 50.9415 22.5292C51.5368 23.1906 51.8345 24.0836 51.8345 25.208C51.8345 26.1671 51.5699 27.0353 51.0407 27.8125C50.5281 28.5897 49.7426 29.2098 48.6843 29.6728C47.626 30.1358 46.3362 30.3673 44.8149 30.3673Z" fill="#475467"/>
<path d="M54.7342 16.8738H57.8347V30.1193H54.7342V16.8738ZM56.2969 14.6911C55.7346 14.6911 55.2634 14.5175 54.883 14.1702C54.5027 13.8064 54.3125 13.3599 54.3125 12.8308C54.3125 12.3016 54.5027 11.8634 54.883 11.5161C55.2634 11.1524 55.7346 10.9705 56.2969 10.9705C56.8591 10.9705 57.3304 11.1441 57.7107 11.4913C58.091 11.8221 58.2812 12.2437 58.2812 12.7564C58.2812 13.302 58.091 13.7651 57.7107 14.1454C57.3469 14.5092 56.8756 14.6911 56.2969 14.6911Z" fill="#475467"/>
<path d="M65.9968 30.2929C64.922 30.2929 63.872 30.1523 62.8467 29.8712C61.8215 29.5901 61.0029 29.2346 60.3911 28.8047L61.5817 26.4483C62.177 26.8451 62.8881 27.1676 63.7149 27.4156C64.5582 27.6471 65.385 27.7629 66.1953 27.7629C68.0473 27.7629 68.9733 27.2751 68.9733 26.2994C68.9733 25.8364 68.7336 25.514 68.254 25.3321C67.791 25.1502 67.0386 24.9765 65.9968 24.8112C64.9055 24.6458 64.0125 24.4557 63.318 24.2407C62.64 24.0257 62.0447 23.6537 61.5321 23.1245C61.036 22.5788 60.788 21.8264 60.788 20.8673C60.788 19.6106 61.3089 18.6101 62.3506 17.866C63.4089 17.1054 64.8311 16.725 66.617 16.725C67.5264 16.725 68.4359 16.8325 69.3454 17.0475C70.2549 17.2459 70.999 17.5188 71.5778 17.866L70.3872 20.2224C69.2627 19.561 67.9977 19.2302 66.5921 19.2302C65.6827 19.2302 64.9881 19.3708 64.5086 19.6519C64.0456 19.9165 63.8141 20.272 63.8141 20.7185C63.8141 21.2146 64.0621 21.5701 64.5582 21.7851C65.0708 21.9835 65.8563 22.1737 66.9146 22.3556C67.9729 22.5209 68.8411 22.7111 69.519 22.9261C70.197 23.141 70.7758 23.5048 71.2553 24.0174C71.7514 24.5301 71.9995 25.2577 71.9995 26.2002C71.9995 27.4404 71.462 28.4326 70.3872 29.1767C69.3123 29.9208 67.8489 30.2929 65.9968 30.2929Z" fill="#475467"/>
<path d="M86.8294 16.8738L80.6284 31.1859C80.0496 32.6245 79.3468 33.6332 78.52 34.212C77.6932 34.8073 76.6928 35.1049 75.5187 35.1049C74.8573 35.1049 74.2041 34.9974 73.5592 34.7825C72.9143 34.5675 72.3851 34.2698 71.9717 33.8895L73.2119 31.6075C73.5096 31.8886 73.8569 32.1119 74.2537 32.2772C74.6671 32.4426 75.0805 32.5253 75.4939 32.5253C76.0396 32.5253 76.4861 32.3847 76.8334 32.1036C77.1972 31.8225 77.5279 31.3512 77.8255 30.6898L78.0488 30.1689L72.2694 16.8738H75.4939L79.661 26.6715L83.8529 16.8738H86.8294Z" fill="#475467"/>
<path d="M96.1093 16.725C97.3991 16.725 98.5484 17.0061 99.5571 17.5684C100.582 18.1306 101.384 18.9243 101.963 19.9496C102.542 20.9748 102.831 22.1571 102.831 23.4966C102.831 24.836 102.542 26.0266 101.963 27.0684C101.384 28.0936 100.582 28.8873 99.5571 29.4496C98.5484 30.0118 97.3991 30.2929 96.1093 30.2929C94.3234 30.2929 92.9095 29.6976 91.8678 28.507V34.9313H88.7673V16.8738H91.7189V18.6101C92.2316 17.9818 92.8599 17.5105 93.6041 17.1963C94.3647 16.8821 95.1998 16.725 96.1093 16.725ZM95.762 27.6389C96.903 27.6389 97.8373 27.2585 98.5649 26.4979C99.309 25.7372 99.6811 24.7368 99.6811 23.4966C99.6811 22.2564 99.309 21.2559 98.5649 20.4953C97.8373 19.7346 96.903 19.3543 95.762 19.3543C95.0179 19.3543 94.3482 19.5279 93.7529 19.8752C93.1576 20.2059 92.6863 20.6854 92.3391 21.3138C91.9918 21.9422 91.8182 22.6698 91.8182 23.4966C91.8182 24.3234 91.9918 25.051 92.3391 25.6793C92.6863 26.3077 93.1576 26.7955 93.7529 27.1428C94.3482 27.4735 95.0179 27.6389 95.762 27.6389Z" fill="#475467"/>
<path d="M113.287 16.725C114.957 16.725 116.297 17.2128 117.306 18.1885C118.314 19.1641 118.819 20.611 118.819 22.5292V30.1193H115.718V22.9261C115.718 21.7685 115.445 20.9004 114.9 20.3216C114.354 19.7263 113.577 19.4287 112.568 19.4287C111.427 19.4287 110.526 19.7759 109.864 20.4705C109.203 21.1484 108.872 22.1323 108.872 23.4221V30.1193H105.772V11.7146H108.872V18.4117C109.385 17.866 110.013 17.4526 110.757 17.1715C111.518 16.8738 112.361 16.725 113.287 16.725Z" fill="#475467"/>
<path d="M135.576 16.8738V30.1193H132.624V28.4326C132.128 29.0279 131.508 29.4909 130.764 29.8216C130.019 30.1358 129.217 30.2929 128.358 30.2929C126.588 30.2929 125.191 29.8051 124.166 28.8295C123.157 27.8373 122.653 26.3738 122.653 24.4391V16.8738H125.753V24.0174C125.753 25.208 126.018 26.101 126.547 26.6963C127.093 27.2751 127.861 27.5644 128.854 27.5644C129.962 27.5644 130.838 27.2255 131.483 26.5475C132.144 25.853 132.475 24.8608 132.475 23.571V16.8738H135.576Z" fill="#475467"/>
<path d="M143.728 30.2929C142.653 30.2929 141.603 30.1523 140.578 29.8712C139.552 29.5901 138.734 29.2346 138.122 28.8047L139.313 26.4483C139.908 26.8451 140.619 27.1676 141.446 27.4156C142.289 27.6471 143.116 27.7629 143.926 27.7629C145.778 27.7629 146.704 27.2751 146.704 26.2994C146.704 25.8364 146.465 25.514 145.985 25.3321C145.522 25.1502 144.77 24.9765 143.728 24.8112C142.636 24.6458 141.743 24.4557 141.049 24.2407C140.371 24.0257 139.776 23.6537 139.263 23.1245C138.767 22.5788 138.519 21.8264 138.519 20.8673C138.519 19.6106 139.04 18.6101 140.082 17.866C141.14 17.1054 142.562 16.725 144.348 16.725C145.257 16.725 146.167 16.8325 147.076 17.0475C147.986 17.2459 148.73 17.5188 149.309 17.866L148.118 20.2224C146.994 19.561 145.729 19.2302 144.323 19.2302C143.414 19.2302 142.719 19.3708 142.24 19.6519C141.777 19.9165 141.545 20.272 141.545 20.7185C141.545 21.2146 141.793 21.5701 142.289 21.7851C142.802 21.9835 143.587 22.1737 144.646 22.3556C145.704 22.5209 146.572 22.7111 147.25 22.9261C147.928 23.141 148.507 23.5048 148.986 24.0174C149.482 24.5301 149.73 25.2577 149.73 26.2002C149.73 27.4404 149.193 28.4326 148.118 29.1767C147.043 29.9208 145.58 30.2929 143.728 30.2929Z" fill="#475467"/>
</g>
</svg>
