<svg width="164" height="43" viewBox="0 0 164 43" fill="none" xmlns="http://www.w3.org/2000/svg">
<g opacity="0.6">
<path d="M14.8564 29.6133C22.5446 29.6133 28.7771 23.3808 28.7771 15.6926C28.7771 14.8213 28.697 13.9686 28.5439 13.1417C27.7169 12.9885 26.8643 12.9084 25.9929 12.9084C18.3047 12.9084 12.0722 19.141 12.0722 26.8292C12.0722 27.7005 12.1523 28.5531 12.3054 29.3801C13.1324 29.5332 13.985 29.6133 14.8564 29.6133Z" fill="#4B5770"/>
<path fill-rule="evenodd" clip-rule="evenodd" d="M12.3054 29.3799C5.83553 28.1817 0.935669 22.5093 0.935669 15.6924C0.935669 8.00424 7.16818 1.77173 14.8564 1.77173C21.6732 1.77173 27.3457 6.67159 28.5439 13.1415C27.7169 12.9883 26.8643 12.9083 25.9929 12.9083C18.3047 12.9083 12.0722 19.1408 12.0722 26.829C12.0722 27.7003 12.1523 28.553 12.3054 29.3799Z" fill="#667085"/>
<path fill-rule="evenodd" clip-rule="evenodd" d="M14.8563 29.6132C22.5445 29.6132 28.777 23.3807 28.777 15.6925C28.777 14.8212 28.697 13.9686 28.5438 13.1416C35.0137 14.3398 39.9136 20.0122 39.9136 26.8291C39.9136 34.5173 33.6811 40.7498 25.9929 40.7498C19.176 40.7498 13.5036 35.8499 12.3054 29.38C13.1323 29.5332 13.985 29.6132 14.8563 29.6132Z" fill="#98A2B3"/>
<path d="M66.6915 25.605C66.1954 27.209 65.3273 28.4079 64.0871 29.2016C62.8469 29.9788 61.3999 30.3674 59.7463 30.3674C58.1258 30.3674 56.7202 30.0284 55.5296 29.3504C54.3556 28.6724 53.4461 27.7051 52.8012 26.4483C52.1728 25.1916 51.8586 23.6868 51.8586 21.934C51.8586 20.1811 52.1811 18.6764 52.826 17.4196C53.4709 16.1629 54.3804 15.1955 55.5544 14.5175C56.7285 13.8396 58.1093 13.5006 59.6967 13.5006C61.3669 13.5006 62.7972 13.8561 63.9878 14.5671C65.195 15.2617 66.0218 16.32 66.4683 17.7421L63.3677 19.0567C63.0866 18.0645 62.6567 17.3617 62.0779 16.9483C61.4992 16.5184 60.755 16.3034 59.8456 16.3034C58.4896 16.3034 57.4065 16.7912 56.5962 17.7669C55.8025 18.726 55.4056 20.115 55.4056 21.934C55.4056 23.7364 55.7859 25.1254 56.5466 26.1011C57.3073 27.0767 58.4069 27.5645 59.8456 27.5645C60.7385 27.5645 61.5074 27.3247 62.1523 26.8452C62.8138 26.3657 63.2768 25.6381 63.5414 24.6624L66.6915 25.605Z" fill="#475467"/>
<path d="M70.9731 15.9314C69.5676 15.9314 68.8648 15.3278 68.8648 14.1207C68.8648 12.897 69.5676 12.2852 70.9731 12.2852C72.3787 12.2852 73.0815 12.897 73.0815 14.1207C73.0815 15.3278 72.3787 15.9314 70.9731 15.9314ZM72.6598 17.7173V30.1194H69.2616V17.7173H72.6598Z" fill="#475467"/>
<path d="M76.262 30.1194V17.7173H79.2137L79.437 20.1481C79.7511 19.3047 80.2224 18.6516 80.8508 18.1885C81.4957 17.709 82.306 17.4692 83.2816 17.4692C83.8604 17.4692 84.3068 17.5602 84.621 17.7421L84.2242 20.5946C84.0588 20.5449 83.8521 20.5036 83.6041 20.4705C83.3725 20.4209 83.0666 20.3961 82.6863 20.3961C82.1737 20.3961 81.6859 20.5201 81.2229 20.7682C80.7764 20.9997 80.4043 21.3635 80.1067 21.8596C79.809 22.3391 79.6602 22.9509 79.6602 23.6951V30.1194H76.262Z" fill="#475467"/>
<path d="M92.1146 17.4692C93.7682 17.4692 95.0498 17.8248 95.9592 18.5358C96.8853 19.2469 97.4971 20.1067 97.7947 21.1154L94.6198 22.2564C94.2891 20.7516 93.4706 19.9993 92.1642 19.9993C91.2216 19.9993 90.4858 20.33 89.9566 20.9914C89.444 21.6529 89.1877 22.6368 89.1877 23.9431C89.1877 25.266 89.4523 26.2499 89.9814 26.8948C90.5271 27.5232 91.263 27.8374 92.189 27.8374C93.6276 27.8374 94.4875 27.1015 94.7686 25.6298L97.8444 26.622C97.5632 27.7299 96.9349 28.6311 95.9592 29.3256C95.0001 30.0201 93.7517 30.3674 92.2138 30.3674C90.924 30.3674 89.7913 30.1111 88.8156 29.5985C87.8565 29.0858 87.1124 28.35 86.5833 27.3909C86.0541 26.4318 85.7895 25.2743 85.7895 23.9183C85.7895 22.5623 86.0541 21.4048 86.5833 20.4457C87.129 19.4866 87.8731 18.7508 88.8156 18.2382C89.7747 17.7255 90.8744 17.4692 92.1146 17.4692Z" fill="#475467"/>
<path d="M106.14 17.4692C107.38 17.4692 108.48 17.7255 109.439 18.2382C110.398 18.7508 111.142 19.4866 111.672 20.4457C112.217 21.4048 112.49 22.5623 112.49 23.9183C112.49 25.2743 112.217 26.4318 111.672 27.3909C111.142 28.35 110.398 29.0858 109.439 29.5985C108.48 30.1111 107.38 30.3674 106.14 30.3674C104.883 30.3674 103.776 30.1111 102.816 29.5985C101.874 29.0858 101.13 28.35 100.584 27.3909C100.055 26.4318 99.7903 25.2743 99.7903 23.9183C99.7903 22.5623 100.055 21.4048 100.584 20.4457C101.13 19.4866 101.874 18.7508 102.816 18.2382C103.776 17.7255 104.883 17.4692 106.14 17.4692ZM106.14 19.9993C105.214 19.9993 104.487 20.33 103.957 20.9914C103.445 21.6363 103.188 22.612 103.188 23.9183C103.188 25.2247 103.445 26.2086 103.957 26.87C104.487 27.5149 105.214 27.8374 106.14 27.8374C107.05 27.8374 107.761 27.5149 108.273 26.87C108.802 26.2086 109.067 25.2247 109.067 23.9183C109.067 22.612 108.802 21.6363 108.273 20.9914C107.761 20.33 107.05 19.9993 106.14 19.9993Z" fill="#475467"/>
<path d="M120.989 17.4692C122.229 17.4692 123.329 17.7255 124.288 18.2382C125.247 18.7508 125.991 19.4866 126.52 20.4457C127.066 21.4048 127.339 22.5623 127.339 23.9183C127.339 25.2743 127.066 26.4318 126.52 27.3909C125.991 28.35 125.247 29.0858 124.288 29.5985C123.329 30.1111 122.229 30.3674 120.989 30.3674C119.732 30.3674 118.624 30.1111 117.665 29.5985C116.722 29.0858 115.978 28.35 115.433 27.3909C114.903 26.4318 114.639 25.2743 114.639 23.9183C114.639 22.5623 114.903 21.4048 115.433 20.4457C115.978 19.4866 116.722 18.7508 117.665 18.2382C118.624 17.7255 119.732 17.4692 120.989 17.4692ZM120.989 19.9993C120.063 19.9993 119.335 20.33 118.806 20.9914C118.293 21.6363 118.037 22.612 118.037 23.9183C118.037 25.2247 118.293 26.2086 118.806 26.87C119.335 27.5149 120.063 27.8374 120.989 27.8374C121.898 27.8374 122.609 27.5149 123.122 26.87C123.651 26.2086 123.916 25.2247 123.916 23.9183C123.916 22.612 123.651 21.6363 123.122 20.9914C122.609 20.33 121.898 19.9993 120.989 19.9993Z" fill="#475467"/>
<path d="M133.531 12.2852V26.2995C133.531 26.8783 133.63 27.2834 133.828 27.5149C134.027 27.7464 134.357 27.8622 134.82 27.8622C135.101 27.8622 135.333 27.8456 135.515 27.8126C135.697 27.7795 135.928 27.7133 136.209 27.6141L135.912 29.8465C135.631 30.0119 135.275 30.1359 134.845 30.2186C134.432 30.3178 134.018 30.3674 133.605 30.3674C132.398 30.3674 131.513 30.078 130.951 29.4992C130.405 28.9039 130.132 27.9614 130.132 26.6716V12.2852H133.531Z" fill="#475467"/>
<path d="M143.857 30.3674C141.906 30.3674 140.343 29.8052 139.169 28.6807C137.995 27.5397 137.408 25.9523 137.408 23.9183C137.408 22.5623 137.673 21.4048 138.202 20.4457C138.731 19.4866 139.467 18.7508 140.41 18.2382C141.369 17.7255 142.46 17.4692 143.684 17.4692C144.941 17.4692 146.007 17.7255 146.884 18.2382C147.76 18.7342 148.43 19.4205 148.893 20.2969C149.356 21.1568 149.587 22.1407 149.587 23.2486C149.587 23.5793 149.579 23.8935 149.562 24.1912C149.546 24.4888 149.521 24.7534 149.488 24.9849H140.732C140.864 25.944 141.195 26.6633 141.724 27.1429C142.27 27.6059 142.973 27.8374 143.833 27.8374C144.56 27.8374 145.147 27.6968 145.594 27.4157C146.04 27.1346 146.387 26.746 146.635 26.2499L149.339 27.2917C148.942 28.2673 148.248 29.028 147.256 29.5737C146.263 30.1028 145.131 30.3674 143.857 30.3674ZM143.659 19.9744C142.055 19.9744 141.088 20.8591 140.757 22.6285H146.338C146.239 21.7686 145.958 21.1154 145.494 20.669C145.048 20.206 144.436 19.9744 143.659 19.9744Z" fill="#475467"/>
<path d="M157.428 30.3674C156.171 30.3674 155.022 30.1442 153.98 29.6977C152.955 29.2512 152.12 28.6228 151.475 27.8126L153.434 25.8282C153.831 26.4235 154.36 26.9113 155.022 27.2917C155.683 27.672 156.469 27.8622 157.378 27.8622C158.023 27.8622 158.536 27.7712 158.916 27.5893C159.313 27.3909 159.511 27.085 159.511 26.6716C159.511 26.407 159.42 26.1838 159.239 26.0019C159.057 25.8034 158.693 25.6463 158.147 25.5306L155.964 25.0841C154.526 24.7865 153.5 24.34 152.889 23.7447C152.293 23.1328 151.996 22.3474 151.996 21.3883C151.996 20.7103 152.194 20.0737 152.591 19.4784C153.004 18.8831 153.616 18.4035 154.427 18.0397C155.237 17.6594 156.245 17.4692 157.453 17.4692C159.966 17.4692 161.769 18.2382 162.86 19.776L160.826 21.7603C160.462 21.1816 159.983 20.7434 159.387 20.4457C158.809 20.1315 158.197 19.9744 157.552 19.9744C156.097 19.9744 155.369 20.3796 155.369 21.1899C155.369 21.4544 155.485 21.6859 155.716 21.8844C155.948 22.0663 156.369 22.2234 156.981 22.3556L159.511 22.8765C160.735 23.1246 161.611 23.5462 162.141 24.1415C162.67 24.7203 162.934 25.4231 162.934 26.2499C162.934 27.4405 162.455 28.4244 161.496 29.2016C160.553 29.9788 159.197 30.3674 157.428 30.3674Z" fill="#475467"/>
</g>
</svg>
