<svg width="76" height="43" viewBox="0 0 76 43" fill="none" xmlns="http://www.w3.org/2000/svg">
<g opacity="0.15">
<path d="M0.296363 27.8373H6.12534V30.1193H-2.53131V12.8804H0.296363V27.8373Z" fill="#475467"/>
<path d="M7.54751 23.2237C7.54751 21.8512 7.82862 20.6358 8.39085 19.5775C8.96961 18.5192 9.74681 17.7006 10.7224 17.1219C11.7146 16.5266 12.806 16.2289 13.9966 16.2289C15.0714 16.2289 16.0057 16.4439 16.7995 16.8738C17.6097 17.2872 18.2546 17.8081 18.7342 18.4365V16.4522H21.5867V30.1193H18.7342V28.0853C18.2546 28.7302 17.6015 29.2677 16.7747 29.6976C15.9478 30.1275 15.0053 30.3425 13.947 30.3425C12.7729 30.3425 11.6981 30.0449 10.7224 29.4496C9.74681 28.8377 8.96961 27.9944 8.39085 26.9195C7.82862 25.8281 7.54751 24.5962 7.54751 23.2237ZM18.7342 23.2733C18.7342 22.3308 18.5357 21.5122 18.1389 20.8177C17.7586 20.1232 17.2542 19.594 16.6258 19.2302C15.9975 18.8664 15.3195 18.6845 14.5919 18.6845C13.8643 18.6845 13.1863 18.8664 12.5579 19.2302C11.9296 19.5775 11.417 20.0984 11.0201 20.7929C10.6398 21.4709 10.4496 22.2811 10.4496 23.2237C10.4496 24.1663 10.6398 24.9931 11.0201 25.7041C11.417 26.4152 11.9296 26.9609 12.5579 27.3412C13.2029 27.705 13.8808 27.8869 14.5919 27.8869C15.3195 27.8869 15.9975 27.705 16.6258 27.3412C17.2542 26.9774 17.7586 26.4482 18.1389 25.7537C18.5357 25.0427 18.7342 24.2159 18.7342 23.2733Z" fill="#475467"/>
<path d="M37.6036 16.4522L29.2198 36.5435H26.2929L29.0709 29.896L23.6884 16.4522H26.8386L30.6832 26.8699L34.6767 16.4522H37.6036Z" fill="#475467"/>
<path d="M52.2636 22.9509C52.2636 23.4635 52.2305 23.9265 52.1644 24.3399H41.7218C41.8045 25.4313 42.2096 26.3077 42.9372 26.9691C43.6648 27.6306 44.5578 27.9613 45.6161 27.9613C47.1374 27.9613 48.2122 27.3247 48.8406 26.0514H51.8915C51.4781 27.3081 50.7257 28.3416 49.6343 29.1519C48.5595 29.9456 47.2201 30.3425 45.6161 30.3425C44.3097 30.3425 43.1357 30.0531 42.0939 29.4744C41.0686 28.8791 40.2584 28.0523 39.6631 26.9939C39.0843 25.9191 38.7949 24.6789 38.7949 23.2733C38.7949 21.8677 39.076 20.6358 39.6383 19.5775C40.217 18.5026 41.019 17.6758 42.0443 17.0971C43.086 16.5183 44.2766 16.2289 45.6161 16.2289C46.9059 16.2289 48.0551 16.51 49.0639 17.0723C50.0726 17.6345 50.858 18.4282 51.4202 19.4535C51.9825 20.4622 52.2636 21.628 52.2636 22.9509ZM49.3119 22.0579C49.2954 21.0161 48.9233 20.1811 48.1957 19.5527C47.4681 18.9243 46.5669 18.6101 45.4921 18.6101C44.5164 18.6101 43.6813 18.9243 42.9868 19.5527C42.2923 20.1645 41.8789 20.9996 41.7466 22.0579H49.3119Z" fill="#475467"/>
<path d="M57.874 18.4365C58.2874 17.742 58.8331 17.2046 59.511 16.8242C60.2056 16.4274 61.0241 16.2289 61.9667 16.2289V19.1558H61.2473C60.1394 19.1558 59.2961 19.4369 58.7173 19.9992C58.1551 20.5614 57.874 21.537 57.874 22.9261V30.1193H55.0463V16.4522H57.874V18.4365Z" fill="#475467"/>
<path d="M69.5267 30.3425C68.4518 30.3425 67.4845 30.1523 66.6246 29.772C65.7813 29.3751 65.1116 28.846 64.6155 28.1845C64.1194 27.5066 63.8548 26.7542 63.8217 25.9274H66.7486C66.7982 26.5061 67.0711 26.9939 67.5672 27.3908C68.0798 27.7711 68.7164 27.9613 69.4771 27.9613C70.2708 27.9613 70.8827 27.8125 71.3126 27.5148C71.7591 27.2006 71.9823 26.8038 71.9823 26.3242C71.9823 25.8116 71.7343 25.4313 71.2382 25.1832C70.7586 24.9352 69.9897 24.6623 68.9314 24.3647C67.9062 24.0836 67.0711 23.8107 66.4262 23.5462C65.7813 23.2816 65.219 22.8764 64.7395 22.3308C64.2765 21.7851 64.045 21.0657 64.045 20.1728C64.045 19.4452 64.2599 18.7838 64.6899 18.1885C65.1198 17.5766 65.7317 17.0971 66.5254 16.7498C67.3357 16.4026 68.2617 16.2289 69.3035 16.2289C70.8579 16.2289 72.1063 16.6258 73.0489 17.4195C74.008 18.1967 74.5206 19.2633 74.5867 20.6193H71.7591C71.7095 20.0074 71.4614 19.5196 71.0149 19.1558C70.5685 18.792 69.9649 18.6101 69.2042 18.6101C68.4601 18.6101 67.8896 18.7507 67.4928 19.0318C67.0959 19.3129 66.8975 19.685 66.8975 20.148C66.8975 20.5118 67.0297 20.8177 67.2943 21.0657C67.5589 21.3138 67.8814 21.5122 68.2617 21.661C68.642 21.7933 69.2042 21.967 69.9484 22.1819C70.9405 22.4465 71.7508 22.7194 72.3792 23.0005C73.0241 23.265 73.578 23.6619 74.041 24.1911C74.5041 24.7202 74.7438 25.423 74.7604 26.2994C74.7604 27.0766 74.5454 27.7711 74.1155 28.383C73.6855 28.9948 73.0737 29.4744 72.28 29.8216C71.5028 30.1689 70.585 30.3425 69.5267 30.3425Z" fill="#475467"/>
</g>
</svg>
