<svg width="143" height="43" viewBox="0 0 143 43" fill="none" xmlns="http://www.w3.org/2000/svg">
<path d="M19.982 1.77173C9.21852 1.77173 0.493042 10.4972 0.493042 21.2607C0.493042 32.0242 9.21852 40.7497 19.982 40.7497C29.6388 40.7497 37.6552 33.7262 39.2015 24.5089H39.0617C37.6194 30.1127 32.5324 34.2534 26.4784 34.2534C19.3027 34.2534 13.4857 28.4364 13.4857 21.2607C13.4857 14.0851 19.3027 8.26806 26.4784 8.26806C32.5324 8.26806 37.6194 12.4087 39.0617 18.0125H39.2015C37.6552 8.79519 29.6388 1.77173 19.982 1.77173Z" fill="#98A2B3"/>
<path d="M0.493042 21.2607C0.493042 10.4972 9.21856 1.77173 19.982 1.77173C29.6388 1.77173 37.6552 8.79519 39.2015 18.0125H26.069C24.6267 12.4087 19.5398 8.26806 13.4857 8.26806C6.31005 8.26806 0.493042 14.0851 0.493042 21.2607Z" fill="#667085"/>
<path d="M0.493042 21.261C0.493042 32.0245 9.21856 40.75 19.982 40.75C29.6388 40.75 37.6552 33.7265 39.2015 24.5092H26.069C24.6267 30.113 19.5398 34.2537 13.4857 34.2537C6.31005 34.2537 0.493042 28.4367 0.493042 21.261Z" fill="#667085"/>
<path d="M67.3216 18.1664C66.7667 14.1586 63.6838 11.8333 59.6848 11.8333C54.9723 11.8333 51.4226 15.2685 51.4226 21.0996C51.4226 26.9219 54.9283 30.3659 59.6848 30.3659C63.9744 30.3659 66.8195 27.5913 67.3216 24.1473L64.0273 24.1296C63.6133 26.2436 61.8869 27.4327 59.7288 27.4327C56.8045 27.4327 54.7081 25.2395 54.7081 21.0996C54.7081 17.0301 56.7869 14.7664 59.7376 14.7664C61.9309 14.7664 63.6485 16.0084 64.0273 18.1664H67.3216Z" fill="#475467"/>
<path d="M74.0665 30.3923C76.1893 30.3923 77.4577 29.397 78.0391 28.2607H78.1448V30.1193H81.2101V21.0643C81.2101 17.4882 78.2945 16.4136 75.7137 16.4136C72.8686 16.4136 70.6841 17.682 69.9795 20.1483L72.9567 20.5711C73.2738 19.6462 74.1722 18.8535 75.7313 18.8535C77.2111 18.8535 78.0215 19.611 78.0215 20.941V20.9939C78.0215 21.9099 77.0613 21.954 74.6743 22.2094C72.0494 22.4913 69.5391 23.2752 69.5391 26.3229C69.5391 28.983 71.4857 30.3923 74.0665 30.3923ZM74.8945 28.0493C73.5645 28.0493 72.6132 27.4416 72.6132 26.2701C72.6132 25.0457 73.679 24.5348 75.1059 24.3322C75.9427 24.2177 77.6163 24.0063 78.0303 23.6716V25.2659C78.0303 26.7721 76.8147 28.0493 74.8945 28.0493Z" fill="#475467"/>
<path d="M91.1722 16.5897H88.5033V13.3483H85.3147V16.5897H83.3945V19.0561H85.3147V26.5783C85.2971 29.1239 87.1468 30.3747 89.5427 30.3043C90.45 30.2778 91.0753 30.1017 91.4189 29.9872L90.8816 27.4944C90.7054 27.5384 90.3443 27.6177 89.9479 27.6177C89.1463 27.6177 88.5033 27.3359 88.5033 26.0498V19.0561H91.1722V16.5897Z" fill="#475467"/>
<path d="M97.7322 30.3923C99.855 30.3923 101.123 29.397 101.705 28.2607H101.81V30.1193H104.876V21.0643C104.876 17.4882 101.96 16.4136 99.3794 16.4136C96.5343 16.4136 94.3498 17.682 93.6452 20.1483L96.6224 20.5711C96.9395 19.6462 97.8379 18.8535 99.397 18.8535C100.877 18.8535 101.687 19.611 101.687 20.941V20.9939C101.687 21.9099 100.727 21.954 98.34 22.2094C95.7151 22.4913 93.2047 23.2752 93.2047 26.3229C93.2047 28.983 95.1514 30.3923 97.7322 30.3923ZM98.5602 28.0493C97.2301 28.0493 96.2788 27.4416 96.2788 26.2701C96.2788 25.0457 97.3446 24.5348 98.7716 24.3322C99.6084 24.2177 101.282 24.0063 101.696 23.6716V25.2659C101.696 26.7721 100.48 28.0493 98.5602 28.0493Z" fill="#475467"/>
<path d="M111.271 12.0799H108.082V30.1193H111.271V12.0799Z" fill="#475467"/>
<path d="M120.451 30.3835C124.415 30.3835 126.934 27.5913 126.934 23.4074C126.934 19.2146 124.415 16.4136 120.451 16.4136C116.487 16.4136 113.968 19.2146 113.968 23.4074C113.968 27.5913 116.487 30.3835 120.451 30.3835ZM120.469 27.8291C118.275 27.8291 117.201 25.8737 117.201 23.3985C117.201 20.9234 118.275 18.9415 120.469 18.9415C122.627 18.9415 123.701 20.9234 123.701 23.3985C123.701 25.8737 122.627 27.8291 120.469 27.8291Z" fill="#475467"/>
<path d="M135.524 35.4747C139.18 35.4747 141.875 33.8011 141.875 30.3395V16.5897H138.73V18.827H138.554C138.07 17.8493 137.057 16.4136 134.67 16.4136C131.543 16.4136 129.085 18.8623 129.085 23.3105C129.085 27.7234 131.543 29.9255 134.661 29.9255C136.978 29.9255 138.061 28.6835 138.554 27.6882H138.713V30.2514C138.713 32.2421 137.392 33.0612 135.577 33.0612C133.657 33.0612 132.811 32.154 132.424 31.3612L129.552 32.0571C130.134 33.9509 132.08 35.4747 135.524 35.4747ZM135.551 27.4239C133.445 27.4239 132.336 25.7856 132.336 23.2928C132.336 20.8353 133.428 19.0296 135.551 19.0296C137.603 19.0296 138.73 20.7296 138.73 23.2928C138.73 25.8737 137.585 27.4239 135.551 27.4239Z" fill="#475467"/>
</svg>
