<svg width="26" height="27" viewBox="0 0 26 27" fill="none" xmlns="http://www.w3.org/2000/svg">
<g clip-path="url(#clip0_421_129)">
<path d="M12.9374 12.903C15.2164 12.903 17.0706 11.049 17.0706 8.77024C17.0706 6.49146 15.2164 4.63757 12.9374 4.63757C10.6583 4.63757 8.8041 6.49146 8.8041 8.77024C8.8041 11.049 10.6583 12.903 12.9374 12.903ZM12.9374 6.11473C14.4018 6.11473 15.5933 7.30603 15.5933 8.77024C15.5933 10.2345 14.4019 11.4258 12.9374 11.4258C11.4729 11.4258 10.2815 10.2345 10.2815 8.77024C10.2815 7.30603 11.4729 6.11473 12.9374 6.11473Z" fill="#010CED"/>
<path d="M8.43699 16.1963C9.55658 17.712 9.10677 17.1225 12.3316 21.7267C12.6247 22.1468 13.248 22.1488 13.5428 21.7274C16.7822 17.1013 16.3365 17.6872 17.4378 16.1963C18.5535 14.6858 19.7072 13.124 20.3394 11.2937C21.2545 8.64427 20.8589 6.02279 19.2258 3.91214C19.2257 3.91214 19.2257 3.91209 19.2257 3.91209C17.7297 1.97926 15.3789 0.825348 12.9374 0.825348C10.4959 0.825348 8.14511 1.97926 6.64909 3.91219C5.01596 6.02284 4.62042 8.64437 5.5355 11.2938C6.16761 13.124 7.32133 14.6859 8.43699 16.1963ZM7.81748 4.81614C9.03571 3.24221 10.9497 2.30251 12.9374 2.30251C14.9251 2.30251 16.8391 3.24221 18.0574 4.81614L18.0573 4.81609C19.3754 6.51958 19.6899 8.64885 18.9429 10.8116C18.3845 12.4282 17.2991 13.8977 16.2495 15.3187C15.4322 16.4251 15.6768 16.0867 12.9374 20.0134C10.2009 16.0907 10.4424 16.4248 9.62537 15.3187C8.57571 13.8977 7.49029 12.4282 6.9319 10.8116C6.18495 8.6488 6.49943 6.51958 7.81748 4.81614Z" fill="#010CED"/>
<path d="M9.04364 19.399C8.82578 19.0542 8.36957 18.9512 8.02466 19.1691L5.92434 20.4956C5.46617 20.785 5.46572 21.4548 5.92434 21.7445L12.5429 25.9248C12.7839 26.077 13.091 26.077 13.3319 25.9248L19.9504 21.7445C20.4087 21.4551 20.4091 20.7853 19.9504 20.4956L17.8501 19.1691C17.5051 18.9512 17.049 19.0542 16.8311 19.399C16.6132 19.7439 16.7163 20.2001 17.0612 20.4179L18.1728 21.12L12.9374 24.4267L7.70195 21.12L8.81362 20.4179C9.15853 20.2001 9.2615 19.744 9.04364 19.399Z" fill="#010CED"/>
</g>
<defs>
<clipPath id="clip0_421_129">
<rect width="25.2136" height="25.2136" fill="white" transform="translate(0.330578 0.825348)"/>
</clipPath>
</defs>
</svg>
