<svg width="173" height="27" viewBox="0 0 173 27" fill="none" xmlns="http://www.w3.org/2000/svg">
<g clip-path="url(#clip0_6_12)">
<path d="M12.8568 0.897339C5.51155 0.897339 0 6.54225 0 13.4991V13.5718C0 20.5269 5.44364 26.1044 12.7906 26.1044C20.1376 26.1044 25.6439 20.4595 25.6439 13.4991V13.4317C25.6439 6.46956 20.2038 0.897339 12.8568 0.897339ZM18.9117 13.57C18.9117 17.0662 16.4929 20.0411 12.8568 20.0411C9.22075 20.0411 6.76885 16.9953 6.76885 13.4973V13.43C6.76885 9.9338 9.18069 6.95888 12.7906 6.95888C16.4006 6.95888 18.9117 10.0012 18.9117 13.4973V13.57Z" fill="white"/>
<path d="M45.1999 1.38315V14.1923L35.401 1.38315H29.2504V25.6187H35.7772V12.3237L45.947 25.6187H51.7267V1.38315H45.1999Z" fill="white"/>
<path d="M62.6419 19.9046V16.0592H74.0707V10.7618H62.6419V7.09365H75.2566V1.38315H56.1133V25.6187H75.4308V19.9046H62.6401H62.6419Z" fill="white"/>
<path d="M89.066 10.5242C85.7695 9.76184 84.951 9.27784 84.951 8.16801V8.10064C84.951 7.23369 85.7364 6.54403 87.3333 6.54403C89.4404 6.54403 91.8209 7.37375 93.9976 8.93035L97.2941 4.18785C94.7116 2.07101 91.5492 0.964722 87.5039 0.964722C81.7921 0.964722 78.2867 4.21976 78.2867 8.7247V8.79207C78.2867 13.7775 82.1979 15.2295 87.2619 16.4067C90.4957 17.169 91.2775 17.7222 91.2775 18.7256V18.7983C91.2775 19.8372 90.325 20.4577 88.5575 20.4577C85.8043 20.4577 83.1835 19.4543 80.8361 17.552L77.1669 22.0179C80.0925 24.6808 84.103 26.0335 88.3206 26.0335C94.1004 26.0335 97.9436 23.0905 97.9436 18.1388V18.0714C97.9436 13.5363 94.5427 11.7333 89.0677 10.5242H89.066Z" fill="white"/>
<path d="M111.067 10.5242C107.77 9.76184 106.955 9.27784 106.955 8.168V8.10063C106.955 7.23369 107.737 6.54403 109.334 6.54403C111.445 6.54403 113.825 7.37374 116.002 8.93035L119.299 4.18785C116.713 2.07455 113.554 0.968262 109.503 0.968262C103.791 0.968262 100.286 4.2233 100.286 8.72824V8.79561C100.286 13.781 104.197 15.233 109.266 16.4102C112.5 17.1726 113.278 17.7257 113.278 18.7292V18.8018C113.278 19.8408 112.326 20.4613 110.558 20.4613C107.805 20.4613 105.188 19.4578 102.84 17.5555L99.1678 22.0214C102.093 24.6843 106.104 26.0371 110.325 26.0371C116.105 26.0371 119.948 23.094 119.948 18.1423V18.075C119.948 13.5399 116.547 11.7368 111.069 10.5277L111.067 10.5242Z" fill="white"/>
<path d="M121.305 1.38315V7.26562H128.45V25.6187H135.044V7.26562H142.189V1.38315H121.305Z" fill="white"/>
<path d="M165.455 22.1065C163.297 22.6827 161.105 23.0834 158.905 23.3032L159.835 25.6187H166.909L165.453 22.1065H165.455ZM156.774 1.20761H150.418L144.366 15.7826C146.52 16.0698 148.706 16.1531 150.87 16.029L153.545 9.17502L155.919 15.3465C157.965 14.9139 159.964 14.2969 161.879 13.5044L156.774 1.20761ZM142.007 21.4577L140.279 25.6169H147.219L148.246 22.9912C146.132 22.6544 144.04 22.142 142.005 21.4577H142.007Z" fill="white"/>
<path d="M140.432 14.1427C145.249 15.3748 150.39 15.5521 155.253 14.6054C160.039 13.6959 164.561 11.7634 168.504 9.05444L173 16.9616C167.696 19.6936 161.892 21.3105 156.067 21.6615C150.478 22.0019 144.871 21.197 139.636 19.2185C139.52 19.1724 139.286 19.0926 139.168 19.0465L139.161 19.043C139.194 19.0518 139.076 19.0199 139.234 19.0625L140.436 14.1427H140.432Z" fill="url(#paint0_linear_6_12)"/>
</g>
<defs>
<linearGradient id="paint0_linear_6_12" x1="136.613" y1="18.2186" x2="173.306" y2="14.3068" gradientUnits="userSpaceOnUse">
<stop stop-color="#9DD600"/>
<stop offset="1" stop-color="#D9FF00"/>
</linearGradient>
<clipPath id="clip0_6_12">
<rect width="173" height="25.2053" fill="white" transform="translate(0 0.897339)"/>
</clipPath>
</defs>
</svg>
